<mxfile host="app.diagrams.net" agent="Mozilla/5.0 (Windows NT 10.0; Win64; x64) AppleWebKit/537.36 (KHTML, like Gecko) Chrome/134.0.0.0 Safari/537.36" version="26.1.1">
  <diagram name="Page-1" id="0ZzGTaMRrlpSjsa8dSZC">
    <mxGraphModel dx="1782" dy="523" grid="1" gridSize="10" guides="1" tooltips="1" connect="1" arrows="1" fold="1" page="1" pageScale="1" pageWidth="850" pageHeight="1100" math="0" shadow="0">
      <root>
        <mxCell id="0" />
        <mxCell id="1" parent="0" />
        <mxCell id="t8z1UINWWWBn0f-jCQq0-1" value="Start" style="ellipse;whiteSpace=wrap;html=1;aspect=fixed;" vertex="1" parent="1">
          <mxGeometry x="330" y="30" width="80" height="80" as="geometry" />
        </mxCell>
        <mxCell id="t8z1UINWWWBn0f-jCQq0-2" value="" style="endArrow=classic;html=1;rounded=0;entryX=0.5;entryY=0;entryDx=0;entryDy=0;" edge="1" parent="1" target="t8z1UINWWWBn0f-jCQq0-16">
          <mxGeometry width="50" height="50" relative="1" as="geometry">
            <mxPoint x="369.5" y="110" as="sourcePoint" />
            <mxPoint x="370" y="190" as="targetPoint" />
          </mxGeometry>
        </mxCell>
        <mxCell id="t8z1UINWWWBn0f-jCQq0-7" value="Login Success" style="endArrow=classic;html=1;rounded=0;exitX=0.5;exitY=1;exitDx=0;exitDy=0;" edge="1" parent="1" source="t8z1UINWWWBn0f-jCQq0-8" target="t8z1UINWWWBn0f-jCQq0-26">
          <mxGeometry width="50" height="50" relative="1" as="geometry">
            <mxPoint x="750" y="430" as="sourcePoint" />
            <mxPoint x="710" y="480" as="targetPoint" />
            <Array as="points">
              <mxPoint x="610" y="480" />
            </Array>
          </mxGeometry>
        </mxCell>
        <mxCell id="t8z1UINWWWBn0f-jCQq0-8" value="Attempt Login" style="rounded=1;whiteSpace=wrap;html=1;" vertex="1" parent="1">
          <mxGeometry x="500" y="370" width="120" height="60" as="geometry" />
        </mxCell>
        <mxCell id="t8z1UINWWWBn0f-jCQq0-11" value="3 Failed Logins?" style="rhombus;whiteSpace=wrap;html=1;" vertex="1" parent="1">
          <mxGeometry x="420" y="495" width="110" height="110" as="geometry" />
        </mxCell>
        <mxCell id="t8z1UINWWWBn0f-jCQq0-12" value="Failed Login" style="endArrow=classic;html=1;rounded=0;entryX=0.5;entryY=0;entryDx=0;entryDy=0;exitX=0;exitY=1;exitDx=0;exitDy=0;" edge="1" parent="1" source="t8z1UINWWWBn0f-jCQq0-8" target="t8z1UINWWWBn0f-jCQq0-11">
          <mxGeometry width="50" height="50" relative="1" as="geometry">
            <mxPoint x="490" y="580" as="sourcePoint" />
            <mxPoint x="470" y="510" as="targetPoint" />
          </mxGeometry>
        </mxCell>
        <mxCell id="t8z1UINWWWBn0f-jCQq0-13" value="&amp;gt; 3 Failed Login" style="endArrow=classic;html=1;rounded=0;exitX=0;exitY=0.5;exitDx=0;exitDy=0;entryX=0.5;entryY=1;entryDx=0;entryDy=0;" edge="1" parent="1" source="t8z1UINWWWBn0f-jCQq0-11" target="t8z1UINWWWBn0f-jCQq0-20">
          <mxGeometry width="50" height="50" relative="1" as="geometry">
            <mxPoint x="320" y="710" as="sourcePoint" />
            <mxPoint x="360" y="450" as="targetPoint" />
            <Array as="points">
              <mxPoint x="370" y="520" />
            </Array>
          </mxGeometry>
        </mxCell>
        <mxCell id="t8z1UINWWWBn0f-jCQq0-14" value="3 Failed Login" style="endArrow=classic;html=1;rounded=0;exitX=0.5;exitY=1;exitDx=0;exitDy=0;" edge="1" parent="1" source="t8z1UINWWWBn0f-jCQq0-11" target="t8z1UINWWWBn0f-jCQq0-22">
          <mxGeometry width="50" height="50" relative="1" as="geometry">
            <mxPoint x="510" y="720" as="sourcePoint" />
            <mxPoint x="180" y="570" as="targetPoint" />
            <Array as="points">
              <mxPoint x="475" y="640" />
              <mxPoint x="190" y="640" />
            </Array>
          </mxGeometry>
        </mxCell>
        <mxCell id="t8z1UINWWWBn0f-jCQq0-15" value="Lock Account + Deliver Inactive Message" style="rounded=1;whiteSpace=wrap;html=1;" vertex="1" parent="1">
          <mxGeometry x="-70" y="270" width="120" height="60" as="geometry" />
        </mxCell>
        <mxCell id="t8z1UINWWWBn0f-jCQq0-16" value="User Inactive?" style="rhombus;whiteSpace=wrap;html=1;" vertex="1" parent="1">
          <mxGeometry x="310" y="190" width="120" height="120" as="geometry" />
        </mxCell>
        <mxCell id="t8z1UINWWWBn0f-jCQq0-18" value="Inactive User" style="endArrow=classic;html=1;rounded=0;exitX=0;exitY=0.5;exitDx=0;exitDy=0;entryX=0.5;entryY=0;entryDx=0;entryDy=0;" edge="1" parent="1" source="t8z1UINWWWBn0f-jCQq0-16" target="t8z1UINWWWBn0f-jCQq0-22">
          <mxGeometry width="50" height="50" relative="1" as="geometry">
            <mxPoint x="240" y="280" as="sourcePoint" />
            <mxPoint x="180" y="370" as="targetPoint" />
            <Array as="points">
              <mxPoint x="190" y="250" />
            </Array>
          </mxGeometry>
        </mxCell>
        <mxCell id="t8z1UINWWWBn0f-jCQq0-19" value="Active User" style="endArrow=classic;html=1;rounded=0;exitX=1;exitY=0.5;exitDx=0;exitDy=0;entryX=0.5;entryY=0;entryDx=0;entryDy=0;" edge="1" parent="1" source="t8z1UINWWWBn0f-jCQq0-16" target="t8z1UINWWWBn0f-jCQq0-8">
          <mxGeometry width="50" height="50" relative="1" as="geometry">
            <mxPoint x="460" y="250" as="sourcePoint" />
            <mxPoint x="560" y="370" as="targetPoint" />
            <Array as="points">
              <mxPoint x="560" y="250" />
            </Array>
          </mxGeometry>
        </mxCell>
        <mxCell id="t8z1UINWWWBn0f-jCQq0-20" value="Display Warning Message" style="rounded=1;whiteSpace=wrap;html=1;" vertex="1" parent="1">
          <mxGeometry x="320" y="370" width="120" height="60" as="geometry" />
        </mxCell>
        <mxCell id="t8z1UINWWWBn0f-jCQq0-21" value="" style="endArrow=classic;html=1;rounded=0;exitX=1;exitY=0.5;exitDx=0;exitDy=0;entryX=0;entryY=0.5;entryDx=0;entryDy=0;" edge="1" parent="1" source="t8z1UINWWWBn0f-jCQq0-20" target="t8z1UINWWWBn0f-jCQq0-8">
          <mxGeometry width="50" height="50" relative="1" as="geometry">
            <mxPoint x="400" y="490" as="sourcePoint" />
            <mxPoint x="450" y="440" as="targetPoint" />
          </mxGeometry>
        </mxCell>
        <mxCell id="t8z1UINWWWBn0f-jCQq0-22" value="User Inactive or too many Failed Logins?" style="rhombus;whiteSpace=wrap;html=1;" vertex="1" parent="1">
          <mxGeometry x="130" y="340" width="120" height="120" as="geometry" />
        </mxCell>
        <mxCell id="t8z1UINWWWBn0f-jCQq0-23" value="" style="endArrow=classic;html=1;rounded=0;exitX=0;exitY=0;exitDx=0;exitDy=0;entryX=1;entryY=0.5;entryDx=0;entryDy=0;" edge="1" parent="1" source="t8z1UINWWWBn0f-jCQq0-22" target="t8z1UINWWWBn0f-jCQq0-15">
          <mxGeometry width="50" height="50" relative="1" as="geometry">
            <mxPoint x="25" y="490" as="sourcePoint" />
            <mxPoint x="-10" y="370" as="targetPoint" />
          </mxGeometry>
        </mxCell>
        <mxCell id="t8z1UINWWWBn0f-jCQq0-24" value="" style="endArrow=classic;html=1;rounded=0;exitX=0;exitY=1;exitDx=0;exitDy=0;entryX=1;entryY=0.5;entryDx=0;entryDy=0;" edge="1" parent="1" source="t8z1UINWWWBn0f-jCQq0-22" target="t8z1UINWWWBn0f-jCQq0-25">
          <mxGeometry width="50" height="50" relative="1" as="geometry">
            <mxPoint x="150" y="450" as="sourcePoint" />
            <mxPoint x="60" y="460" as="targetPoint" />
          </mxGeometry>
        </mxCell>
        <mxCell id="t8z1UINWWWBn0f-jCQq0-25" value="Lock Account + Deliver Contact Admin Message" style="rounded=1;whiteSpace=wrap;html=1;" vertex="1" parent="1">
          <mxGeometry x="-70" y="430" width="120" height="60" as="geometry" />
        </mxCell>
        <mxCell id="t8z1UINWWWBn0f-jCQq0-26" value="Logged In" style="rounded=1;whiteSpace=wrap;html=1;" vertex="1" parent="1">
          <mxGeometry x="600" y="520" width="120" height="60" as="geometry" />
        </mxCell>
        <mxCell id="t8z1UINWWWBn0f-jCQq0-27" value="" style="endArrow=classic;html=1;rounded=0;exitX=1;exitY=0.5;exitDx=0;exitDy=0;entryX=0;entryY=0.5;entryDx=0;entryDy=0;" edge="1" parent="1" source="t8z1UINWWWBn0f-jCQq0-8" target="t8z1UINWWWBn0f-jCQq0-28">
          <mxGeometry width="50" height="50" relative="1" as="geometry">
            <mxPoint x="650" y="390" as="sourcePoint" />
            <mxPoint x="680" y="360" as="targetPoint" />
          </mxGeometry>
        </mxCell>
        <mxCell id="t8z1UINWWWBn0f-jCQq0-28" value="Reset Password" style="rounded=1;whiteSpace=wrap;html=1;" vertex="1" parent="1">
          <mxGeometry x="690" y="340" width="120" height="60" as="geometry" />
        </mxCell>
      </root>
    </mxGraphModel>
  </diagram>
</mxfile>
